<svg width="35" height="34" viewBox="0 0 35 34" fill="none" xmlns="http://www.w3.org/2000/svg">
<path d="M31.6459 16.9998C31.2977 17.1676 30.9775 17.3651 30.6804 17.5863C29.7289 18.2946 29.0416 19.227 28.4422 20.0876C28.3805 20.1762 28.3197 20.2639 28.2597 20.3504C27.1032 22.0177 26.2401 23.2619 24.369 23.2619H23.7619V23.869C23.7619 25.7397 22.5179 26.6026 20.8507 27.7589C20.7641 27.819 20.6764 27.8798 20.5876 27.9416C19.7272 28.541 18.7948 29.2283 18.0865 30.1798C17.8655 30.4768 17.668 30.7969 17.5003 31.145C17.3327 30.7969 17.1352 30.4768 16.9141 30.1798C16.2059 29.2283 15.2735 28.541 14.413 27.9416C14.3243 27.8798 14.2367 27.819 14.1501 27.7589C12.4829 26.6025 11.2388 25.7395 11.2388 23.8683V23.2612H10.6317C8.76055 23.2612 7.89753 22.0171 6.74106 20.3499C6.68103 20.2633 6.62022 20.1757 6.55843 20.087C5.959 19.2265 5.27172 18.2941 4.32019 17.5859C4.02322 17.3648 3.70306 17.1673 3.35497 16.9997C3.70306 16.832 4.02322 16.6345 4.32019 16.4135C5.27173 15.7053 5.959 14.7729 6.55843 13.9124C6.62022 13.8237 6.68104 13.736 6.74106 13.6495C7.89753 11.9823 8.76055 10.7381 10.6317 10.7381H11.2388V10.131C11.2388 8.25992 12.4829 7.39704 14.1501 6.24073C14.2366 6.18071 14.3243 6.1199 14.413 6.05812C15.2735 5.45878 16.2059 4.77158 16.9141 3.8201C17.1352 3.52316 17.3326 3.20302 17.5003 2.85495C17.668 3.20305 17.8655 3.52321 18.0865 3.82019C18.7947 4.77172 19.7271 5.459 20.5876 6.05843C20.6763 6.12022 20.764 6.18103 20.8505 6.24106C22.5177 7.39753 23.7619 8.26055 23.7619 10.1317V10.7388H24.369C26.2401 10.7388 27.1031 11.9828 28.2596 13.6498C28.3196 13.7364 28.3804 13.824 28.4422 13.9127C29.0417 14.7731 29.729 15.7054 30.6805 16.4136C30.9775 16.6347 31.2978 16.8322 31.6459 16.9998Z" stroke="#F2AA20" stroke-width="1.21429"/>
<circle cx="17.5" cy="17" r="3.44048" stroke="#F2AA20" stroke-width="1.21429"/>
</svg>
