<svg width="17" height="11" viewBox="0 0 17 11" fill="none" xmlns="http://www.w3.org/2000/svg">
<path d="M1.64669 0.5C1.55417 0.500009 1.46545 0.536347 1.40003 0.601013C1.33462 0.665679 1.29786 0.753376 1.29785 0.844827V10.1552C1.29786 10.2466 1.33462 10.3343 1.40003 10.399C1.46545 10.4637 1.55417 10.5 1.64669 10.5H15.949C16.0415 10.5 16.1303 10.4637 16.1957 10.399C16.2611 10.3343 16.2978 10.2466 16.2979 10.1552V0.844827C16.2978 0.753376 16.2611 0.665679 16.1957 0.601013C16.1303 0.536347 16.0415 0.500009 15.949 0.5H1.64669ZM2.63869 1.18965H14.957L8.79785 6.09267L2.63869 1.18965ZM1.99553 1.56142L8.57983 6.79847C8.6417 6.84743 8.7186 6.87411 8.79785 6.87411C8.87711 6.87411 8.954 6.84743 9.01587 6.79847L15.6002 1.56142V9.81035H1.99553V1.56142Z" fill="#F2AA20" stroke="#F2AA20" stroke-width="0.8"/>
</svg>
