<svg width="125" height="135" viewBox="0 0 125 135" fill="none" xmlns="http://www.w3.org/2000/svg">
<path d="M62.5108 96.6821C78.5715 96.6821 91.5913 83.6172 91.5913 67.5007C91.5913 51.3843 78.5715 38.3193 62.5108 38.3193C46.4502 38.3193 33.4304 51.3843 33.4304 67.5007C33.4304 83.6172 46.4502 96.6821 62.5108 96.6821Z" fill="#F2AA20"/>
<path fill-rule="evenodd" clip-rule="evenodd" d="M18.1401 67.5L62.5093 112.023L106.878 67.5L62.5093 22.9768L18.1401 67.5ZM4.06818 76.3559C-0.804628 71.4662 -0.804628 63.5338 4.06818 58.6441L62.5093 0L120.95 58.6441C125.823 63.5338 125.823 71.4662 120.95 76.3559L62.5093 135L4.06818 76.3559Z" fill="#A1252A"/>
<path d="M40.4106 79.4006L40.9452 76.1953C40.9898 75.9091 41.0611 75.661 41.1591 75.4509C41.2571 75.2408 41.3841 75.0664 41.54 74.9279C41.7004 74.7893 41.8986 74.6865 42.1347 74.6194C42.3753 74.5523 42.6627 74.5188 42.9968 74.5188C43.1616 74.5188 43.3309 74.5277 43.5047 74.5456C43.6829 74.5635 43.8589 74.5926 44.0326 74.6328L44.046 74.7133C44.0326 74.7982 44.0215 74.9077 44.0126 75.0419C44.0081 75.176 44.0059 75.3123 44.0059 75.4509C44.0059 75.585 44.0059 75.6968 44.0059 75.7862V79.4006H43.2374V75.5448C43.2374 75.4464 43.2374 75.3548 43.2374 75.2699C43.2418 75.1849 43.253 75.1044 43.2708 75.0284L43.3911 75.243C43.3332 75.2207 43.2619 75.205 43.1772 75.1961C43.097 75.1872 43.0102 75.1827 42.9166 75.1827C42.6448 75.1827 42.4288 75.2207 42.2684 75.2967C42.108 75.3727 41.9855 75.4844 41.9009 75.632C41.8207 75.7795 41.7605 75.9695 41.7204 76.202L41.1925 79.4006H40.4106ZM41.119 77.9857V77.3285H43.5715V77.9857H41.119Z" fill="#181818"/>
<path d="M45.221 79.4006V74.5725H45.9961V78.7233H48.0009V79.4006H45.221Z" fill="#181818"/>
<path d="M48.6763 76.8591H50.9751V77.5297H48.6763V76.8591Z" fill="#181818"/>
<path d="M52.4816 79.4006V78.7502H53.9719C54.159 78.7502 54.3194 78.7055 54.453 78.6161C54.5867 78.5266 54.6535 78.3657 54.6535 78.1332C54.6535 77.9186 54.5889 77.7689 54.4597 77.6839C54.3305 77.5945 54.1679 77.5498 53.9719 77.5498H52.4816V76.9128H53.7246C53.9162 76.9128 54.0743 76.8681 54.1991 76.7787C54.3238 76.6848 54.4174 76.5641 54.4797 76.4165C54.5421 76.2645 54.5733 76.1036 54.5733 75.9337C54.5733 75.67 54.502 75.4889 54.3595 75.3906C54.2169 75.2877 54.0231 75.2363 53.7781 75.2363H52.4816V74.5725H53.7981C54.3104 74.5725 54.6958 74.682 54.9542 74.901C55.2126 75.1201 55.3418 75.4509 55.3418 75.8935C55.3418 76.0768 55.3106 76.2578 55.2482 76.4367C55.1903 76.611 55.099 76.772 54.9743 76.9195C54.8495 77.0625 54.6958 77.1765 54.5132 77.2615L54.4731 77.1005C54.7805 77.1497 55.0143 77.2682 55.1747 77.4559C55.3396 77.6437 55.422 77.8784 55.422 78.1601C55.422 78.3791 55.373 78.5825 55.275 78.7703C55.1814 78.958 55.0299 79.11 54.8206 79.2263C54.6112 79.3425 54.3394 79.4006 54.0053 79.4006H52.4816ZM52.0406 79.4006V74.5725H52.8158V79.4006H52.0406Z" fill="#181818"/>
<path d="M56.086 79.4006L56.6206 76.1953C56.6652 75.9091 56.7365 75.661 56.8345 75.4509C56.9325 75.2408 57.0594 75.0664 57.2154 74.9279C57.3758 74.7893 57.574 74.6865 57.8101 74.6194C58.0507 74.5523 58.338 74.5188 58.6722 74.5188C58.837 74.5188 59.0063 74.5277 59.1801 74.5456C59.3583 74.5635 59.5342 74.5926 59.708 74.6328L59.7213 74.7133C59.708 74.7982 59.6968 74.9077 59.6879 75.0419C59.6835 75.176 59.6812 75.3123 59.6812 75.4509C59.6812 75.585 59.6812 75.6968 59.6812 75.7862V79.4006H58.9128V75.5448C58.9128 75.4464 58.9128 75.3548 58.9128 75.2699C58.9172 75.1849 58.9283 75.1044 58.9462 75.0284L59.0665 75.243C59.0085 75.2207 58.9373 75.205 58.8526 75.1961C58.7724 75.1872 58.6855 75.1827 58.592 75.1827C58.3202 75.1827 58.1042 75.2207 57.9438 75.2967C57.7834 75.3727 57.6609 75.4844 57.5762 75.632C57.496 75.7795 57.4359 75.9695 57.3958 76.202L56.8679 79.4006H56.086ZM56.7944 77.9857V77.3285H59.2469V77.9857H56.7944Z" fill="#181818"/>
<path d="M63.8768 79.4006V74.5725H64.652V79.4006H63.8768ZM60.8963 79.4006V74.5725H61.6715V79.4006H60.8963ZM61.3374 77.2481V76.5775H64.2109V77.2481H61.3374Z" fill="#181818"/>
<path d="M65.6152 76.9865C65.6152 76.4948 65.7065 76.0611 65.8892 75.6856C66.0718 75.3101 66.3347 75.0173 66.6777 74.8072C67.0208 74.597 67.4306 74.492 67.9073 74.492C68.384 74.492 68.7939 74.597 69.1369 74.8072C69.48 75.0173 69.7428 75.3101 69.9255 75.6856C70.1081 76.0611 70.1994 76.4948 70.1994 76.9865C70.1994 77.4783 70.1081 77.9119 69.9255 78.2875C69.7428 78.663 69.48 78.9558 69.1369 79.1659C68.7939 79.376 68.384 79.4811 67.9073 79.4811C67.4262 79.4811 67.0141 79.376 66.671 79.1659C66.3325 78.9558 66.0718 78.663 65.8892 78.2875C65.7065 77.9119 65.6152 77.4783 65.6152 76.9865ZM66.4104 76.9865C66.4104 77.371 66.4706 77.6974 66.5908 77.9656C66.7111 78.2338 66.8827 78.4395 67.1054 78.5825C67.3282 78.7211 67.5955 78.7904 67.9073 78.7904C68.2192 78.7904 68.4865 78.7211 68.7092 78.5825C68.932 78.4395 69.1035 78.2338 69.2238 77.9656C69.3441 77.6974 69.4042 77.371 69.4042 76.9865C69.4042 76.6021 69.3441 76.2757 69.2238 76.0075C69.1035 75.7393 68.932 75.5359 68.7092 75.3973C68.4865 75.2542 68.2192 75.1827 67.9073 75.1827C67.5955 75.1827 67.3282 75.2542 67.1054 75.3973C66.8827 75.5359 66.7111 75.7393 66.5908 76.0075C66.4706 76.2757 66.4104 76.6021 66.4104 76.9865Z" fill="#181818"/>
<path d="M70.9208 76.9865C70.9208 76.4948 71.0121 76.0611 71.1948 75.6856C71.3774 75.3101 71.6403 75.0173 71.9833 74.8072C72.3264 74.597 72.7362 74.492 73.2129 74.492C73.6896 74.492 74.0995 74.597 74.4425 74.8072C74.7856 75.0173 75.0484 75.3101 75.2311 75.6856C75.4137 76.0611 75.5051 76.4948 75.5051 76.9865C75.5051 77.4783 75.4137 77.9119 75.2311 78.2875C75.0484 78.663 74.7856 78.9558 74.4425 79.1659C74.0995 79.376 73.6896 79.4811 73.2129 79.4811C72.7318 79.4811 72.3197 79.376 71.9767 79.1659C71.6381 78.9558 71.3774 78.663 71.1948 78.2875C71.0121 77.9119 70.9208 77.4783 70.9208 76.9865ZM71.716 76.9865C71.716 77.371 71.7762 77.6974 71.8965 77.9656C72.0167 78.2338 72.1883 78.4395 72.411 78.5825C72.6338 78.7211 72.9011 78.7904 73.2129 78.7904C73.5248 78.7904 73.7921 78.7211 74.0148 78.5825C74.2376 78.4395 74.4091 78.2338 74.5294 77.9656C74.6497 77.6974 74.7098 77.371 74.7098 76.9865C74.7098 76.6021 74.6497 76.2757 74.5294 76.0075C74.4091 75.7393 74.2376 75.5359 74.0148 75.3973C73.7921 75.2542 73.5248 75.1827 73.2129 75.1827C72.9011 75.1827 72.6338 75.2542 72.411 75.3973C72.1883 75.5359 72.0167 75.7393 71.8965 76.0075C71.7762 76.2757 71.716 76.6021 71.716 76.9865Z" fill="#181818"/>
<path d="M75.7046 74.5725H79.507V75.2497H77.99V79.4006H77.2215V75.2497H75.7046V74.5725Z" fill="#181818"/>
<path d="M83.1806 79.4006V74.5725H83.9558V79.4006H83.1806ZM80.2002 79.4006V74.5725H80.9753V79.4006H80.2002ZM80.6412 77.2481V76.5775H83.5147V77.2481H80.6412Z" fill="#181818"/>
<path d="M59.0576 55.7995C58.8762 56.187 58.6948 56.5745 58.5126 56.9612C57.4895 59.1314 56.4712 61.3072 55.178 63.3307C54.2613 64.7656 53.214 66.0984 51.845 67.149C51.2275 67.6224 50.5857 68.0221 49.873 68.3391C49.0547 68.7031 48.2266 68.9593 47.3309 68.9949C46.923 69.0111 46.5118 69.1173 46.1103 69.0817C45.2565 69.0055 44.4502 68.8206 43.6609 68.3853C42.5 67.744 41.9235 66.6764 41.339 65.6111C40.2473 63.6209 40.0055 61.458 40.2167 59.2213C40.3336 57.9842 40.64 56.7901 41.1285 55.66C41.5962 54.5794 42.3968 53.7484 43.3618 53.0715C43.852 52.7278 44.3946 52.5089 44.9372 52.2811C46.3207 51.699 47.7969 51.6163 49.261 51.4631C49.7295 51.4137 50.1931 51.314 50.6607 51.2548C50.8767 51.2272 51.1081 51.2005 51.3129 51.2515C51.429 51.2807 51.5532 51.4566 51.5822 51.5872C51.5991 51.6617 51.4492 51.8093 51.3444 51.8677C51.217 51.9374 51.0573 51.9763 50.9106 51.9771C50.0246 51.9852 49.1893 52.2479 48.3589 52.5089C47.5599 52.7602 46.748 53.0091 45.999 53.3771C45.1033 53.8165 44.2326 54.3183 43.4642 54.9823C42.6838 55.656 42.0227 56.4123 41.6332 57.3779C41.1979 58.4577 41.16 59.5764 41.3462 60.7138C41.5816 62.152 42.0678 63.479 43.0063 64.614C43.4336 65.1304 43.8988 65.6095 44.543 65.8349C45.1412 66.0432 45.7652 66.1405 46.4037 66.1032C47.7703 66.0238 49.0837 65.7498 50.2753 65.0307C51.3734 64.3684 52.3546 63.5561 53.1503 62.5516C53.9227 61.5772 54.7152 60.5995 55.3385 59.5278C56.2874 57.8959 57.1033 56.1862 57.9628 54.5024C58.3884 53.6682 58.8037 52.8299 59.4454 52.136C59.5196 52.0557 59.6623 52.0168 59.7768 52.0087C59.8163 52.0063 59.8977 52.1546 59.9058 52.2398C60.0582 53.8368 60.2758 55.4355 59.9042 57.0317C59.8493 57.2668 59.7816 57.5027 59.6808 57.72C59.6357 57.8156 59.497 57.9048 59.3906 57.9186C59.3374 57.9259 59.2076 57.7589 59.2052 57.6681C59.1939 57.2157 59.2181 56.7634 59.2205 56.3102C59.2205 56.1472 59.1955 55.9843 59.1818 55.8205L59.0568 55.7978L59.0576 55.7995Z" fill="#181818"/>
<path d="M55.4538 69.6444C54.8217 69.6444 54.1888 69.6566 53.5575 69.6347C53.4261 69.6298 53.3067 69.5423 53.1697 69.4288C53.2527 69.2991 53.3535 69.1953 53.4736 69.1426C53.6784 69.0526 53.9074 69.0178 54.1243 68.9545C54.8249 68.7519 55.5336 68.5727 56.2229 68.3344C56.826 68.126 57.421 67.8804 57.9934 67.5983C59.4261 66.8922 60.4468 65.7694 61.1426 64.3353C61.1708 64.2777 61.1933 64.2169 61.2087 64.1545C61.2683 63.9129 61.2103 63.8626 60.9668 63.9162C60.5863 63.9997 60.2065 64.105 59.8203 64.1431C59.3455 64.1902 59.2277 64.1245 59.077 63.6657C58.9431 63.2603 58.8424 62.8266 58.827 62.4026C58.8012 61.6706 58.9625 60.9572 59.2656 60.2867C59.5132 59.7379 59.9058 59.6512 60.3879 60.0306C60.6637 60.247 60.9313 60.4748 61.1925 60.7099C61.486 60.9734 61.5699 60.9758 61.8851 60.7496C62.0383 60.6394 62.2132 60.5534 62.3882 60.4829C62.6873 60.3621 62.805 60.1489 62.8236 59.8303C62.8824 58.8437 62.9259 57.8531 63.0493 56.8738C63.1194 56.3209 63.2888 55.768 63.4976 55.2492C63.8064 54.4823 64.6263 54.3169 65.2632 54.8446C65.4551 55.0035 65.6422 55.1681 65.8292 55.3335C66.1839 55.6472 66.3565 55.6237 66.6411 55.2516C66.9523 54.8462 67.2651 54.4409 67.6061 54.0615C67.748 53.9042 67.9512 53.7826 68.1496 53.7008C68.4277 53.5856 68.6091 53.6886 68.5906 53.9869C68.5575 54.5155 68.5486 55.0773 68.3576 55.5556C68.073 56.269 67.6448 56.9256 67.2619 57.5977C67.1861 57.7307 67.0507 57.8458 66.9168 57.9252C66.3428 58.2657 65.9566 58.7724 65.6414 59.3439C65.3495 59.8733 65.0915 60.4237 64.7658 60.9312C64.4909 61.3593 64.1289 61.7289 63.8322 62.144C63.7249 62.294 63.6669 62.4731 63.6701 62.658C63.6862 63.3933 63.7467 64.1277 63.7612 64.863C63.766 65.09 63.7773 65.4321 63.471 65.4483C63.1831 65.4637 63.1888 65.1208 63.1452 64.9133C63.0477 64.4504 63.0042 63.9761 62.9114 63.5116C62.884 63.3722 62.7671 63.2514 62.6913 63.1217C62.568 63.236 62.3963 63.3292 62.3334 63.4711C62.256 63.6478 62.2423 63.8643 62.2463 64.0629C62.2842 65.7159 61.5811 67.0657 60.5524 68.2833C60.3331 68.5435 60.1211 68.8151 59.8703 69.0413C59.7002 69.1945 59.4753 69.3518 59.2592 69.3785C57.9958 69.5366 55.4529 69.6452 55.4529 69.6452L55.4538 69.6444ZM63.6169 58.8324C63.6774 58.9977 63.7233 59.121 63.7685 59.2442C63.8862 59.168 64.0329 59.1153 64.1151 59.0115C64.3385 58.7302 64.5505 58.4368 64.7319 58.1271C64.8069 57.999 64.8561 57.785 64.798 57.6699C64.7376 57.5499 64.5336 57.4372 64.3949 57.4404C64.2458 57.4437 64.0168 57.5515 63.9668 57.6731C63.812 58.0476 63.7257 58.4513 63.6169 58.8332V58.8324Z" fill="#181818"/>
<path d="M78.1365 57.9446C78.1139 58.1327 78.0913 58.2746 78.08 58.4173C78.0188 59.1704 77.9599 59.9227 77.8994 60.6758C77.8962 60.7155 77.8906 60.7642 77.8672 60.7909C77.7745 60.8971 77.6769 61.0722 77.5753 61.0771C77.4697 61.0812 77.2948 60.936 77.2609 60.8234C77.173 60.5299 77.1166 60.2186 77.1053 59.9122C77.0956 59.6535 77.1351 59.3836 77.2077 59.1339C77.4995 58.1327 77.3085 57.1575 77.1101 56.1725C76.9489 55.3731 76.8336 54.5633 76.7175 53.7558C76.6885 53.5548 76.574 53.2994 76.8336 53.1576C77.0134 53.0595 77.4681 53.2159 77.6108 53.4316C77.8091 53.7315 78.0018 54.0404 78.151 54.3663C78.5493 55.2353 78.9177 56.1182 79.3095 56.9905C79.9666 58.4554 80.1109 59.9762 79.8336 61.5497C79.6643 62.512 79.4055 63.4427 78.8411 64.2534C78.1792 65.2043 77.3367 65.8682 76.1144 65.8812C75.7194 65.8853 75.7008 65.9071 75.6492 66.3044C75.5428 67.1199 75.0937 67.7093 74.3883 68.0765C73.6377 68.4673 72.5476 68.1762 71.9865 67.4928C71.4117 66.7924 71.1504 65.9525 70.9964 65.0867C70.7296 63.5772 70.5587 62.0491 70.262 60.5461C70.012 59.2823 69.6468 58.0403 69.3203 56.7918C69.0808 55.875 68.9849 54.9654 69.3614 54.0607C69.3961 53.9772 69.4259 53.8904 69.4694 53.8118C69.6396 53.5094 69.8822 53.4859 70.0749 53.7793C70.2217 54.0039 70.3668 54.2536 70.4216 54.5114C70.6925 55.7834 70.9706 57.0553 71.1754 58.3386C71.4471 60.0419 71.6414 61.7565 71.8946 63.4629C71.9768 64.0158 72.2316 64.5095 72.5581 64.97C73.1185 65.7572 74.3722 65.548 74.6035 64.7746C74.71 64.4179 74.8236 64.0612 74.9631 63.7167C75.1316 63.2992 75.3034 62.8784 75.5307 62.4934C75.6081 62.362 75.8589 62.3328 76.0306 62.2575C76.0975 62.4131 76.2233 62.5704 76.2168 62.7228C76.2063 62.9465 76.0902 63.1638 76.0419 63.3884C76.0112 63.527 76.0217 63.6753 76.0145 63.8196C76.1725 63.788 76.37 63.8059 76.4829 63.7167C77.0464 63.2692 77.6318 62.8355 78.1244 62.3158C78.7089 61.6989 79 60.9198 78.9548 60.0492C78.9177 59.3244 78.5863 58.6937 78.28 58.0581C78.2655 58.0281 78.2227 58.0119 78.1357 57.9462L78.1365 57.9446Z" fill="#181818"/>
<path d="M82.7289 58.0549C82.7289 58.3435 82.7192 58.5575 82.7305 58.7707C82.7901 59.8846 82.7402 60.9928 82.5023 62.084C82.4636 62.2599 82.3443 62.5404 82.2354 62.5542C81.9855 62.585 81.9823 62.2972 81.9275 62.114C81.709 61.3787 81.7985 60.628 81.8702 59.8879C82.0089 58.4594 81.8541 57.0667 81.4453 55.6991C81.2615 55.0829 81.1704 54.462 81.2156 53.8175C81.2341 53.5467 81.1986 53.2727 81.2156 53.0019C81.2228 52.8852 81.276 52.6955 81.3478 52.6744C81.4719 52.6371 81.6767 52.6558 81.7598 52.7401C81.9686 52.9508 82.1814 53.1884 82.2959 53.4567C82.5563 54.0663 82.7522 54.7035 82.9852 55.3253C83.1965 55.8896 83.3722 56.4757 83.6536 57.0043C84.168 57.9722 84.3687 59.0115 84.4905 60.0784C84.7259 62.1529 84.5114 64.1918 83.9503 66.1925C83.8044 66.713 83.5899 67.2205 83.3545 67.7085C82.9385 68.5711 82.1669 68.9116 81.2712 68.9691C79.6716 69.0721 78.0696 69.1345 76.4684 69.2188C76.1887 69.2334 75.9097 69.2853 75.63 69.2958C75.5405 69.2991 75.4485 69.222 75.3574 69.1823C75.4074 69.0948 75.4356 68.9618 75.5098 68.9278C75.8275 68.7818 76.15 68.6327 76.4854 68.5435C77.5198 68.2687 78.5767 68.0798 79.5458 67.5853C80.5544 67.0705 81.4929 66.4673 82.1967 65.5569C82.9941 64.5241 83.3513 63.3211 83.5569 62.0475C83.7754 60.6985 83.3666 59.4728 82.9224 58.2446C82.9127 58.217 82.8941 58.1911 82.8756 58.1676C82.8635 58.1522 82.845 58.1425 82.7297 58.0541L82.7289 58.0549Z" fill="#181818"/>
<path d="M47.2003 59.8158C47.2931 58.5901 47.3608 57.447 47.8679 56.3947C48.292 55.516 48.7709 55.2979 49.5997 55.7024C49.8948 55.8467 50.1689 56.0405 50.4374 56.2326C50.8429 56.5236 51.2428 56.8252 51.629 57.143C51.7306 57.2273 51.8451 57.3959 51.8289 57.5086C51.7346 58.1742 51.6137 58.8365 51.4815 59.4964C51.4113 59.8458 51.2799 59.8912 50.9703 59.7194C50.5156 59.4656 50.0713 59.1892 49.6053 58.9573C48.6483 58.4798 48.4194 58.5998 48.188 59.6042C48.1009 59.982 47.9558 60.3493 47.8042 60.7068C47.7663 60.7951 47.5889 60.8884 47.4954 60.8705C47.4035 60.8535 47.2882 60.7076 47.2697 60.6022C47.2197 60.316 47.2157 60.0217 47.1995 59.8166L47.2003 59.8158Z" fill="#181818"/>
<path d="M75.4895 70.2962C75.3702 71.089 75.1106 71.7319 74.6857 72.2921C74.5857 72.4234 74.3237 72.5272 74.1632 72.498C73.5835 72.3926 73.0047 72.2556 72.4459 72.07C72.0001 71.9224 71.8751 71.6719 71.9783 71.2212C72.117 70.6132 72.2855 70.0108 72.4774 69.4174C72.5104 69.3161 72.7346 69.1977 72.8507 69.2156C73.698 69.3428 74.5236 69.5617 75.275 69.9881C75.3895 70.053 75.4435 70.2265 75.4903 70.2962H75.4895Z" fill="#181818"/>
</svg>
