<svg width="29" height="27" viewBox="0 0 29 27" fill="none" xmlns="http://www.w3.org/2000/svg">
<path fill-rule="evenodd" clip-rule="evenodd" d="M3.08595 5.71881H25.9207C26.5782 5.69581 27.201 5.41848 27.6579 4.94528C28.1149 4.47207 28.3703 3.83994 28.3703 3.18212C28.3703 2.52431 28.1149 1.89218 27.6579 1.41897C27.201 0.945765 26.5782 0.668438 25.9207 0.645442H3.08595C2.74537 0.633528 2.40587 0.690322 2.0877 0.812438C1.76954 0.934554 1.47922 1.11949 1.23407 1.35622C0.988913 1.59295 0.79394 1.87662 0.660776 2.19032C0.527612 2.50402 0.458984 2.84133 0.458984 3.18212C0.458984 3.52292 0.527612 3.86022 0.660776 4.17393C0.79394 4.48763 0.988913 4.7713 1.23407 5.00803C1.47922 5.24476 1.76954 5.42969 2.0877 5.55181C2.40587 5.67393 2.74537 5.73072 3.08595 5.71881ZM25.9207 10.7922H3.08595C2.41277 10.7922 1.76716 11.0596 1.29115 11.5356C0.815138 12.0116 0.547718 12.6572 0.547718 13.3304C0.547718 14.0036 0.815138 14.6492 1.29115 15.1252C1.76716 15.6012 2.41277 15.8686 3.08595 15.8686H25.9207C26.5939 15.8686 27.2395 15.6012 27.7156 15.1252C28.1916 14.6492 28.459 14.0036 28.459 13.3304C28.459 12.6572 28.1916 12.0116 27.7156 11.5356C27.2395 11.0596 26.5939 10.7922 25.9207 10.7922ZM25.9207 20.942H3.08595C2.74537 20.9301 2.40587 20.9869 2.0877 21.109C1.76954 21.2311 1.47922 21.4161 1.23407 21.6528C0.988913 21.8895 0.79394 22.1732 0.660776 22.4869C0.527612 22.8006 0.458984 23.1379 0.458984 23.4787C0.458984 23.8195 0.527612 24.1568 0.660776 24.4705C0.79394 24.7842 0.988913 25.0679 1.23407 25.3046C1.47922 25.5413 1.76954 25.7263 2.0877 25.8484C2.40587 25.9705 2.74537 26.0273 3.08595 26.0154H25.9207C26.5782 25.9924 27.201 25.715 27.6579 25.2418C28.1149 24.7686 28.3703 24.1365 28.3703 23.4787C28.3703 22.8209 28.1149 22.1887 27.6579 21.7155C27.201 21.2423 26.5782 20.965 25.9207 20.942Z" fill="#F2AA20"/>
</svg>
