<svg width="28" height="27" viewBox="0 0 28 27" fill="none" xmlns="http://www.w3.org/2000/svg">
<path d="M14.1039 0C6.67389 0 0.650635 6.04417 0.650635 13.5C0.650635 20.9558 6.67389 27 14.1039 27C21.534 27 27.5572 20.9558 27.5572 13.5C27.5572 6.04417 21.534 0 14.1039 0ZM22.4158 16.9312C22.3512 18.2146 21.9918 19.4803 21.0597 20.4057C20.1186 21.3399 18.8513 21.688 17.56 21.7521H10.6479C9.35642 21.688 8.08933 21.3401 7.1482 20.4057C6.21604 19.4803 5.85668 18.2146 5.7921 16.9312V10.0688C5.85668 8.78537 6.2161 7.51972 7.1482 6.59426C8.08933 5.66006 9.35658 5.31198 10.6479 5.24788H17.5599C18.8514 5.31198 20.1185 5.6599 21.0596 6.59426C21.9918 7.51972 22.3512 8.78537 22.4157 10.0688L22.4158 16.9312Z" fill="#F2AA20"/>
<path d="M14.089 16.4698C15.6612 16.4698 16.9357 15.2005 16.9357 13.6348C16.9357 12.0691 15.6612 10.7998 14.089 10.7998C12.5167 10.7998 11.2422 12.0691 11.2422 13.6348C11.2422 15.2005 12.5167 16.4698 14.089 16.4698Z" fill="#F2AA20"/>
<path d="M17.4836 6.83455C15.7871 6.78822 12.3916 6.78822 10.6952 6.83455C9.81235 6.85869 8.81153 7.07755 8.18253 7.74661C7.52892 8.44208 7.28193 9.28232 7.25687 10.2223C7.21284 11.8721 7.25687 16.8239 7.25687 16.8239C7.28556 17.7638 7.52892 18.6041 8.18253 19.2996C8.81153 19.9689 9.81235 20.1875 10.6952 20.2116C12.3916 20.258 15.7871 20.258 17.4836 20.2116C18.3664 20.1875 19.3672 19.9686 19.9962 19.2996C20.6498 18.6041 20.8968 17.7639 20.9219 16.8239V10.2223C20.8968 9.28232 20.6498 8.44208 19.9962 7.74661C19.367 7.07734 18.3662 6.85869 17.4836 6.83455ZM14.0892 17.9174C13.2165 17.9174 12.3633 17.6596 11.6377 17.1768C10.9121 16.6939 10.3465 16.0077 10.0126 15.2047C9.67859 14.4018 9.5912 13.5182 9.76146 12.6658C9.93172 11.8134 10.352 11.0304 10.9691 10.4159C11.5862 9.80135 12.3724 9.38284 13.2283 9.21329C14.0843 9.04373 14.9715 9.13075 15.7777 9.46334C16.584 9.79593 17.2732 10.3592 17.758 11.0818C18.2429 11.8044 18.5016 12.654 18.5016 13.5231C18.5016 14.6885 18.0368 15.8062 17.2093 16.6303C16.3818 17.4544 15.2594 17.9174 14.0892 17.9174ZM18.5204 10.0359C18.3459 10.0358 18.1753 9.98427 18.0302 9.88767C17.8851 9.79108 17.772 9.6538 17.7052 9.49321C17.6385 9.33262 17.621 9.15592 17.6551 8.98545C17.6892 8.81499 17.7733 8.65841 17.8967 8.53552C18.0201 8.41263 18.1774 8.32895 18.3485 8.29506C18.5197 8.26117 18.6971 8.27858 18.8584 8.34511C19.0196 8.41163 19.1574 8.52428 19.2544 8.6688C19.3514 8.81332 19.4031 8.98323 19.4031 9.15704C19.4031 9.27247 19.3803 9.38677 19.3359 9.49341C19.2916 9.60005 19.2265 9.69694 19.1446 9.77856C19.0626 9.86017 18.9653 9.9249 18.8582 9.96905C18.7511 10.0132 18.6363 10.0359 18.5204 10.0359Z" fill="#F2AA20"/>
</svg>
