<svg width="14" height="13" viewBox="0 0 14 13" fill="none" xmlns="http://www.w3.org/2000/svg">
<path d="M7 1L7.35355 0.646447L7 0.292893L6.64645 0.646447L7 1ZM8.61093 2.61093L8.25737 2.96448L8.40382 3.11093H8.61093V2.61093ZM5.38907 2.61093V3.11093H5.59618L5.74263 2.96448L5.38907 2.61093ZM3.11088 2.61093V2.11093H2.61088V2.61093H3.11088ZM3.11088 4.88912L3.46443 5.24267L3.61088 5.09623V4.88912H3.11088ZM1.5 6.5L1.14645 6.14645L0.792893 6.5L1.14645 6.85355L1.5 6.5ZM3.11088 8.11088H3.61088V7.90377L3.46443 7.75733L3.11088 8.11088ZM3.11088 10.3891H2.61088V10.8891H3.11088V10.3891ZM5.3891 10.3891L5.74265 10.0355L5.59621 9.8891H5.3891V10.3891ZM7 12L6.64645 12.3536L7 12.7071L7.35355 12.3536L7 12ZM8.6109 10.3891V9.8891H8.40379L8.25735 10.0355L8.6109 10.3891ZM10.8891 10.3891V10.8891H11.3891V10.3891H10.8891ZM10.8891 8.11094L10.5355 7.75739L10.3891 7.90384V8.11094H10.8891ZM12.5 6.5L12.8536 6.85355L13.2071 6.5L12.8536 6.14645L12.5 6.5ZM10.8891 4.88905H10.3891V5.09616L10.5355 5.24261L10.8891 4.88905ZM10.8891 2.61093H11.3891V2.11093H10.8891V2.61093ZM6.64645 1.35355L8.25737 2.96448L8.96448 2.25737L7.35355 0.646447L6.64645 1.35355ZM5.74263 2.96448L7.35355 1.35355L6.64645 0.646447L5.03552 2.25737L5.74263 2.96448ZM3.11088 3.11093H5.38907V2.11093H3.11088V3.11093ZM3.61088 4.88912V2.61093H2.61088V4.88912H3.61088ZM1.85355 6.85355L3.46443 5.24267L2.75733 4.53557L1.14645 6.14645L1.85355 6.85355ZM3.46443 7.75733L1.85355 6.14645L1.14645 6.85355L2.75733 8.46443L3.46443 7.75733ZM3.61088 10.3891V8.11088H2.61088V10.3891H3.61088ZM5.3891 9.8891H3.11088V10.8891H5.3891V9.8891ZM7.35355 11.6464L5.74265 10.0355L5.03555 10.7427L6.64645 12.3536L7.35355 11.6464ZM8.25735 10.0355L6.64645 11.6464L7.35355 12.3536L8.96445 10.7427L8.25735 10.0355ZM10.8891 9.8891H8.6109V10.8891H10.8891V9.8891ZM10.3891 8.11094V10.3891H11.3891V8.11094H10.3891ZM12.1464 6.14645L10.5355 7.75739L11.2426 8.4645L12.8536 6.85355L12.1464 6.14645ZM10.5355 5.24261L12.1464 6.85355L12.8536 6.14645L11.2426 4.5355L10.5355 5.24261ZM10.3891 2.61093V4.88905H11.3891V2.61093H10.3891ZM8.61093 3.11093H10.8891V2.11093H8.61093V3.11093Z" fill="#F2AA20"/>
</svg>
