<svg width="11" height="17" viewBox="0 0 11 17" fill="none" xmlns="http://www.w3.org/2000/svg">
<path fill-rule="evenodd" clip-rule="evenodd" d="M9.31519 8.18686C9.6459 7.35705 9.82633 6.67636 9.82633 6.21043C9.82633 3.74798 7.83011 1.75176 5.36766 1.75176C2.90521 1.75176 0.908982 3.74798 0.908982 6.21043C0.908982 6.67636 1.0894 7.35705 1.42013 8.18686C1.74524 9.0026 2.19439 9.9115 2.68544 10.8152C3.65912 12.6071 4.77849 14.3437 5.36766 15.2318C5.95682 14.3437 7.0762 12.6071 8.04987 10.8152C8.54092 9.9115 8.99006 9.0026 9.31519 8.18686ZM5.76601 15.5274C6.94278 13.7553 10.3217 8.47006 10.3217 6.21043C10.3217 3.47436 8.10372 1.25635 5.36766 1.25635C2.63159 1.25635 0.413574 3.47436 0.413574 6.21043C0.413574 8.47006 3.79253 13.7553 4.9693 15.5274C5.16102 15.8161 5.57429 15.8161 5.76601 15.5274Z" fill="#F2AA20" stroke="#F2AA20" stroke-width="0.8"/>
<path fill-rule="evenodd" clip-rule="evenodd" d="M5.41357 7.85635C6.29723 7.85635 7.01357 7.14001 7.01357 6.25635C7.01357 5.37269 6.29723 4.65635 5.41357 4.65635C4.52991 4.65635 3.81357 5.37269 3.81357 6.25635C3.81357 7.14001 4.52991 7.85635 5.41357 7.85635ZM5.41357 8.25635C6.51813 8.25635 7.41357 7.36091 7.41357 6.25635C7.41357 5.15179 6.51813 4.25635 5.41357 4.25635C4.30901 4.25635 3.41357 5.15179 3.41357 6.25635C3.41357 7.36091 4.30901 8.25635 5.41357 8.25635Z" fill="#F2AA20" stroke="#F2AA20" stroke-width="0.8"/>
</svg>
