<svg width="28" height="27" viewBox="0 0 28 27" fill="none" xmlns="http://www.w3.org/2000/svg">
<g clip-path="url(#clip0_6352_1561)">
<path d="M15.8896 11.883C16.3096 10.8696 15.8286 9.70748 14.8152 9.2874C13.8018 8.86733 12.6397 9.34835 12.2196 10.3618C11.7995 11.3752 12.2805 12.5373 13.294 12.9574C14.3074 13.3775 15.4695 12.8964 15.8896 11.883Z" fill="#F2AA20"/>
<path d="M14.0493 0C11.3793 0 8.76919 0.791761 6.54912 2.27516C4.32906 3.75856 2.59873 5.86697 1.57695 8.33377C0.555166 10.8006 0.287821 13.515 0.808721 16.1337C1.32962 18.7525 2.61537 21.1579 4.50338 23.0459C6.39139 24.934 8.79686 26.2197 11.4156 26.7406C14.0343 27.2615 16.7487 26.9942 19.2155 25.9724C21.6824 24.9506 23.7908 23.2203 25.2742 21.0002C26.7576 18.7801 27.5493 16.17 27.5493 13.5C27.5493 9.91958 26.127 6.4858 23.5953 3.95406C21.0635 1.42232 17.6297 0 14.0493 0ZM19.023 14.5995C18.2858 16.1769 16.847 18.5074 14.0777 21.8487C11.2445 18.4364 9.78617 16.0845 9.02946 14.5036C8.71984 13.9643 8.50025 13.3781 8.37932 12.7682C8.29623 12.467 8.26086 12.1548 8.27452 11.8427C8.27452 11.7752 8.27452 11.7095 8.27452 11.642C8.27509 10.7524 8.48097 9.87498 8.87614 9.078C9.27131 8.28102 9.84509 7.58601 10.5528 7.04707C11.2605 6.50814 12.0831 6.13983 12.9565 5.97082C13.8298 5.80181 14.7304 5.83666 15.5881 6.07266C16.4458 6.30867 17.2375 6.73945 17.9014 7.33147C18.5654 7.92349 19.0837 8.66077 19.4161 9.48591C19.7485 10.311 19.886 11.2018 19.8178 12.0887C19.7496 12.9757 19.4776 13.8349 19.023 14.5995Z" fill="#F2AA20"/>
</g>
<defs>
<clipPath id="clip0_6352_1561">
<rect width="27" height="27" fill="white" transform="translate(0.549316)"/>
</clipPath>
</defs>
</svg>
