<svg width="43" height="45" viewBox="0 0 43 45" fill="none" xmlns="http://www.w3.org/2000/svg">
<path d="M21.2711 32.2267C26.6432 32.2267 30.9982 27.8717 30.9982 22.4996C30.9982 17.1274 26.6432 12.7725 21.2711 12.7725C15.8989 12.7725 11.5439 17.1274 11.5439 22.4996C11.5439 27.8717 15.8989 32.2267 21.2711 32.2267Z" fill="#F2AA20"/>
<path fill-rule="evenodd" clip-rule="evenodd" d="M6.42937 22.5L21.2704 37.3411L36.1115 22.5L21.2704 7.65892L6.42937 22.5ZM1.72243 25.452C0.0925227 23.8221 0.0925227 21.1779 1.72243 19.548L21.2705 0L40.8185 19.548C42.4484 21.1779 42.4484 23.8221 40.8185 25.452L21.2705 45L1.72243 25.452Z" fill="#A1252A"/>
<path d="M13.8786 26.467L14.0575 25.3985C14.0724 25.3031 14.0962 25.2204 14.129 25.1504C14.1618 25.0803 14.2043 25.0222 14.2564 24.976C14.3101 24.9298 14.3764 24.8955 14.4554 24.8732C14.5358 24.8508 14.6319 24.8397 14.7437 24.8397C14.7988 24.8397 14.8555 24.8426 14.9136 24.8486C14.9732 24.8546 15.0321 24.8642 15.0902 24.8777L15.0947 24.9045C15.0902 24.9328 15.0865 24.9693 15.0835 25.014C15.082 25.0587 15.0812 25.1042 15.0812 25.1504C15.0812 25.1951 15.0812 25.2323 15.0812 25.2621V26.467H14.8242V25.1817C14.8242 25.1489 14.8242 25.1183 14.8242 25.09C14.8257 25.0617 14.8294 25.0349 14.8354 25.0095L14.8756 25.0811C14.8562 25.0736 14.8324 25.0684 14.8041 25.0654C14.7772 25.0624 14.7482 25.061 14.7169 25.061C14.626 25.061 14.5537 25.0736 14.5001 25.099C14.4464 25.1243 14.4054 25.1615 14.3771 25.2107C14.3503 25.2599 14.3302 25.3232 14.3168 25.4007L14.1402 26.467H13.8786ZM14.1156 25.9953V25.7763H14.9359V25.9953H14.1156Z" fill="#181818"/>
<path d="M15.4877 26.467V24.8575H15.747V26.2412H16.4176V26.467H15.4877Z" fill="#181818"/>
<path d="M16.6435 25.6198H17.4124V25.8433H16.6435V25.6198Z" fill="#181818"/>
<path d="M17.9164 26.467V26.2501H18.4148C18.4774 26.2501 18.5311 26.2352 18.5758 26.2054C18.6205 26.1756 18.6429 26.122 18.6429 26.0445C18.6429 25.973 18.6212 25.923 18.578 25.8947C18.5348 25.8649 18.4804 25.85 18.4148 25.85H17.9164V25.6377H18.3321C18.3962 25.6377 18.4491 25.6228 18.4908 25.593C18.5326 25.5617 18.5639 25.5214 18.5847 25.4723C18.6056 25.4216 18.616 25.3679 18.616 25.3113C18.616 25.2234 18.5922 25.163 18.5445 25.1302C18.4968 25.096 18.432 25.0788 18.35 25.0788H17.9164V24.8575H18.3567C18.5281 24.8575 18.657 24.894 18.7434 24.9671C18.8299 25.0401 18.8731 25.1504 18.8731 25.2979C18.8731 25.359 18.8627 25.4193 18.8418 25.479C18.8224 25.5371 18.7919 25.5907 18.7501 25.6399C18.7084 25.6876 18.657 25.7256 18.5959 25.7539L18.5825 25.7003C18.6853 25.7166 18.7636 25.7561 18.8172 25.8187C18.8723 25.8813 18.8999 25.9595 18.8999 26.0534C18.8999 26.1265 18.8835 26.1943 18.8507 26.2568C18.8194 26.3194 18.7688 26.3701 18.6987 26.4088C18.6287 26.4476 18.5378 26.467 18.426 26.467H17.9164ZM17.7688 26.467V24.8575H18.0281V26.467H17.7688Z" fill="#181818"/>
<path d="M19.122 26.467L19.3009 25.3985C19.3158 25.3031 19.3396 25.2204 19.3724 25.1504C19.4052 25.0803 19.4476 25.0222 19.4998 24.976C19.5534 24.9298 19.6198 24.8955 19.6987 24.8732C19.7792 24.8508 19.8753 24.8397 19.9871 24.8397C20.0422 24.8397 20.0989 24.8426 20.157 24.8486C20.2166 24.8546 20.2755 24.8642 20.3336 24.8777L20.338 24.9045C20.3336 24.9328 20.3298 24.9693 20.3269 25.014C20.3254 25.0587 20.3246 25.1042 20.3246 25.1504C20.3246 25.1951 20.3246 25.2323 20.3246 25.2621V26.467H20.0676V25.1817C20.0676 25.1489 20.0676 25.1183 20.0676 25.09C20.0691 25.0617 20.0728 25.0349 20.0787 25.0095L20.119 25.0811C20.0996 25.0736 20.0758 25.0684 20.0475 25.0654C20.0206 25.0624 19.9916 25.061 19.9603 25.061C19.8694 25.061 19.7971 25.0736 19.7434 25.099C19.6898 25.1243 19.6488 25.1615 19.6205 25.2107C19.5937 25.2599 19.5736 25.3232 19.5602 25.4007L19.3836 26.467H19.122ZM19.359 25.9953V25.7763H20.1793V25.9953H19.359Z" fill="#181818"/>
<path d="M21.728 26.467V24.8575H21.9873V26.467H21.728ZM20.7311 26.467V24.8575H20.9904V26.467H20.7311ZM20.8786 25.7494V25.5259H21.8398V25.7494H20.8786Z" fill="#181818"/>
<path d="M22.3095 25.6623C22.3095 25.4983 22.3401 25.3538 22.4012 25.2286C22.4623 25.1034 22.5502 25.0058 22.6649 24.9358C22.7797 24.8657 22.9168 24.8307 23.0762 24.8307C23.2357 24.8307 23.3728 24.8657 23.4875 24.9358C23.6023 25.0058 23.6902 25.1034 23.7513 25.2286C23.8124 25.3538 23.8429 25.4983 23.8429 25.6623C23.8429 25.8262 23.8124 25.9707 23.7513 26.0959C23.6902 26.2211 23.6023 26.3187 23.4875 26.3887C23.3728 26.4588 23.2357 26.4938 23.0762 26.4938C22.9153 26.4938 22.7774 26.4588 22.6627 26.3887C22.5494 26.3187 22.4623 26.2211 22.4012 26.0959C22.3401 25.9707 22.3095 25.8262 22.3095 25.6623ZM22.5755 25.6623C22.5755 25.7904 22.5956 25.8992 22.6359 25.9886C22.6761 26.078 22.7335 26.1466 22.808 26.1943C22.8825 26.2405 22.9719 26.2636 23.0762 26.2636C23.1806 26.2636 23.27 26.2405 23.3445 26.1943C23.419 26.1466 23.4764 26.078 23.5166 25.9886C23.5568 25.8992 23.5769 25.7904 23.5769 25.6623C23.5769 25.5341 23.5568 25.4253 23.5166 25.3359C23.4764 25.2465 23.419 25.1787 23.3445 25.1325C23.27 25.0848 23.1806 25.061 23.0762 25.061C22.9719 25.061 22.8825 25.0848 22.808 25.1325C22.7335 25.1787 22.6761 25.2465 22.6359 25.3359C22.5956 25.4253 22.5755 25.5341 22.5755 25.6623Z" fill="#181818"/>
<path d="M24.0842 25.6623C24.0842 25.4983 24.1148 25.3538 24.1759 25.2286C24.237 25.1034 24.3249 25.0058 24.4397 24.9358C24.5544 24.8657 24.6915 24.8307 24.851 24.8307C25.0104 24.8307 25.1475 24.8657 25.2623 24.9358C25.377 25.0058 25.4649 25.1034 25.526 25.2286C25.5871 25.3538 25.6177 25.4983 25.6177 25.6623C25.6177 25.8262 25.5871 25.9707 25.526 26.0959C25.4649 26.2211 25.377 26.3187 25.2623 26.3887C25.1475 26.4588 25.0104 26.4938 24.851 26.4938C24.69 26.4938 24.5522 26.4588 24.4374 26.3887C24.3242 26.3187 24.237 26.2211 24.1759 26.0959C24.1148 25.9707 24.0842 25.8262 24.0842 25.6623ZM24.3502 25.6623C24.3502 25.7904 24.3704 25.8992 24.4106 25.9886C24.4508 26.078 24.5082 26.1466 24.5827 26.1943C24.6572 26.2405 24.7466 26.2636 24.851 26.2636C24.9553 26.2636 25.0447 26.2405 25.1192 26.1943C25.1937 26.1466 25.2511 26.078 25.2913 25.9886C25.3315 25.8992 25.3517 25.7904 25.3517 25.6623C25.3517 25.5341 25.3315 25.4253 25.2913 25.3359C25.2511 25.2465 25.1937 25.1787 25.1192 25.1325C25.0447 25.0848 24.9553 25.061 24.851 25.061C24.7466 25.061 24.6572 25.0848 24.5827 25.1325C24.5082 25.1787 24.4508 25.2465 24.4106 25.3359C24.3704 25.4253 24.3502 25.5341 24.3502 25.6623Z" fill="#181818"/>
<path d="M25.6844 24.8575H26.9563V25.0833H26.4489V26.467H26.1918V25.0833H25.6844V24.8575Z" fill="#181818"/>
<path d="M28.1851 26.467V24.8575H28.4444V26.467H28.1851ZM27.1882 26.467V24.8575H27.4475V26.467H27.1882ZM27.3357 25.7494V25.5259H28.2969V25.7494H27.3357Z" fill="#181818"/>
<path d="M20.116 18.5997C20.0553 18.7289 19.9947 18.8581 19.9337 18.987C19.5915 19.7104 19.2509 20.4357 18.8183 21.1102C18.5117 21.5885 18.1614 22.0328 17.7034 22.383C17.4968 22.5408 17.2822 22.674 17.0438 22.7797C16.77 22.901 16.4931 22.9864 16.1935 22.9983C16.057 23.0037 15.9195 23.0391 15.7852 23.0272C15.4996 23.0018 15.2299 22.9402 14.9659 22.7951C14.5775 22.5814 14.3847 22.2255 14.1892 21.8704C13.824 21.2069 13.7431 20.486 13.8138 19.7404C13.8529 19.328 13.9554 18.93 14.1188 18.5533C14.2752 18.193 14.543 17.916 14.8658 17.6904C15.0298 17.5758 15.2113 17.5029 15.3928 17.4269C15.8555 17.2329 16.3493 17.2053 16.8391 17.1543C16.9958 17.1378 17.1508 17.1045 17.3073 17.0848C17.3795 17.0756 17.4569 17.0667 17.5254 17.0837C17.5643 17.0935 17.6058 17.1521 17.6155 17.1956C17.6212 17.2205 17.571 17.2696 17.536 17.2891C17.4933 17.3123 17.4399 17.3253 17.3909 17.3256C17.0945 17.3283 16.8151 17.4158 16.5373 17.5029C16.2701 17.5866 15.9985 17.6696 15.7479 17.7923C15.4483 17.9387 15.1571 18.106 14.9001 18.3273C14.639 18.5519 14.4179 18.804 14.2876 19.1259C14.142 19.4858 14.1293 19.8588 14.1916 20.2379C14.2703 20.7173 14.433 21.1597 14.7469 21.538C14.8898 21.7101 15.0454 21.8698 15.2609 21.945C15.461 22.0144 15.6697 22.0468 15.8833 22.0344C16.3404 22.0079 16.7798 21.9166 17.1784 21.6769C17.5457 21.4561 17.8739 21.1853 18.14 20.8505C18.3984 20.5257 18.6635 20.1998 18.872 19.8425C19.1894 19.2986 19.4623 18.7286 19.7498 18.1674C19.8922 17.8893 20.0311 17.6099 20.2457 17.3785C20.2706 17.3518 20.3183 17.3388 20.3566 17.3361C20.3698 17.3353 20.397 17.3848 20.3997 17.4131C20.4507 17.9455 20.5235 18.4784 20.3992 19.0105C20.3809 19.0889 20.3582 19.1675 20.3245 19.2399C20.3094 19.2718 20.263 19.3015 20.2274 19.3061C20.2096 19.3086 20.1662 19.2529 20.1654 19.2226C20.1616 19.0718 20.1697 18.921 20.1705 18.77C20.1705 18.7157 20.1621 18.6613 20.1576 18.6068L20.1158 18.5992L20.116 18.5997Z" fill="#181818"/>
<path d="M18.9105 23.2148C18.6991 23.2148 18.4874 23.2189 18.2762 23.2116C18.2323 23.21 18.1924 23.1808 18.1465 23.1429C18.1743 23.0997 18.208 23.0651 18.2482 23.0476C18.3167 23.0176 18.3933 23.0059 18.4658 22.9849C18.7002 22.9173 18.9372 22.8576 19.1678 22.7781C19.3695 22.7087 19.5686 22.6268 19.76 22.5328C20.2393 22.2974 20.5807 21.9231 20.8134 21.4451C20.8229 21.4259 20.8304 21.4056 20.8355 21.3848C20.8555 21.3043 20.8361 21.2875 20.7546 21.3054C20.6274 21.3332 20.5003 21.3683 20.3712 21.381C20.2123 21.3967 20.1729 21.3748 20.1225 21.2219C20.0777 21.0867 20.044 20.9422 20.0389 20.8008C20.0303 20.5568 20.0842 20.319 20.1856 20.0955C20.2684 19.9126 20.3997 19.8837 20.561 20.0101C20.6532 20.0823 20.7428 20.1582 20.8302 20.2366C20.9283 20.3244 20.9564 20.3252 21.0618 20.2498C21.1131 20.2131 21.1716 20.1844 21.2301 20.1609C21.3301 20.1207 21.3695 20.0496 21.3757 19.9434C21.3954 19.6145 21.41 19.2843 21.4512 18.9578C21.4747 18.7735 21.5313 18.5892 21.6012 18.4163C21.7045 18.1607 21.9787 18.1055 22.1918 18.2814C22.256 18.3344 22.3185 18.3893 22.3811 18.4444C22.4998 18.549 22.5575 18.5411 22.6527 18.4171C22.7568 18.282 22.8614 18.1469 22.9755 18.0204C23.023 17.968 23.0909 17.9274 23.1573 17.9001C23.2503 17.8618 23.311 17.8961 23.3048 17.9955C23.2937 18.1717 23.2908 18.359 23.2268 18.5184C23.1316 18.7562 22.9884 18.9751 22.8603 19.1992C22.835 19.2435 22.7897 19.2819 22.7449 19.3083C22.5529 19.4218 22.4237 19.5907 22.3183 19.7812C22.2206 19.9577 22.1343 20.1412 22.0254 20.3104C21.9334 20.453 21.8123 20.5763 21.7131 20.7146C21.6772 20.7646 21.6578 20.8243 21.6589 20.886C21.6643 21.1311 21.6845 21.3759 21.6894 21.621C21.691 21.6967 21.6948 21.8107 21.5923 21.8161C21.496 21.8212 21.4979 21.7069 21.4833 21.6377C21.4507 21.4834 21.4361 21.3254 21.4051 21.1705C21.396 21.124 21.3568 21.0838 21.3315 21.0405C21.2902 21.0786 21.2328 21.1097 21.2118 21.157C21.1859 21.2159 21.1813 21.2881 21.1826 21.3543C21.1953 21.9053 20.9601 22.3552 20.616 22.7611C20.5427 22.8479 20.4717 22.9384 20.3879 23.0138C20.331 23.0648 20.2557 23.1173 20.1835 23.1262C19.7609 23.1789 18.9103 23.2151 18.9103 23.2151L18.9105 23.2148ZM21.6411 19.6107C21.6613 19.6659 21.6767 19.7069 21.6918 19.748C21.7312 19.7226 21.7803 19.705 21.8078 19.6704C21.8825 19.5767 21.9534 19.4789 22.0141 19.3756C22.0392 19.3329 22.0556 19.2616 22.0362 19.2232C22.016 19.1832 21.9477 19.1457 21.9013 19.1467C21.8514 19.1478 21.7749 19.1838 21.7581 19.2243C21.7064 19.3491 21.6775 19.4837 21.6411 19.611V19.6107Z" fill="#181818"/>
<path d="M26.4979 19.3148C26.4903 19.3775 26.4828 19.4248 26.479 19.4724C26.4585 19.7234 26.4388 19.9742 26.4186 20.2252C26.4175 20.2385 26.4156 20.2547 26.4078 20.2636C26.3768 20.299 26.3442 20.3574 26.3102 20.359C26.2748 20.3603 26.2163 20.312 26.205 20.2744C26.1756 20.1766 26.1567 20.0728 26.1529 19.9707C26.1497 19.8845 26.1629 19.7945 26.1872 19.7112C26.2848 19.3775 26.2209 19.0524 26.1546 18.7241C26.1006 18.4576 26.0621 18.1877 26.0232 17.9185C26.0135 17.8515 25.9752 17.7664 26.0621 17.7191C26.1222 17.6864 26.2743 17.7385 26.322 17.8104C26.3884 17.9104 26.4528 18.0134 26.5027 18.122C26.6359 18.4117 26.7592 18.706 26.8903 18.9967C27.1101 19.4851 27.1583 19.992 27.0656 20.5165C27.0089 20.8373 26.9224 21.1475 26.7336 21.4178C26.5122 21.7347 26.2303 21.9561 25.8215 21.9604C25.6894 21.9617 25.6832 21.969 25.6659 22.1015C25.6303 22.3733 25.4801 22.5698 25.2441 22.6922C24.993 22.8224 24.6284 22.7254 24.4407 22.4976C24.2484 22.2641 24.1611 21.9842 24.1095 21.6956C24.0203 21.1924 23.9631 20.683 23.8639 20.182C23.7803 19.7607 23.6581 19.3467 23.5489 18.9305C23.4688 18.6249 23.4367 18.3217 23.5626 18.0201C23.5742 17.9923 23.5842 17.9634 23.5988 17.9372C23.6557 17.8364 23.7368 17.8285 23.8013 17.9263C23.8504 18.0012 23.8989 18.0844 23.9173 18.1704C24.0079 18.5944 24.1009 19.0184 24.1694 19.4461C24.2603 20.0139 24.3253 20.5854 24.41 21.1543C24.4375 21.3386 24.5227 21.5032 24.6319 21.6566C24.8194 21.919 25.2387 21.8493 25.3161 21.5915C25.3517 21.4726 25.3897 21.3537 25.4364 21.2389C25.4928 21.0997 25.5502 20.9594 25.6263 20.8311C25.6521 20.7873 25.736 20.7776 25.7935 20.7524C25.8158 20.8043 25.8579 20.8568 25.8558 20.9076C25.8522 20.9821 25.8134 21.0546 25.7972 21.1294C25.787 21.1756 25.7905 21.2251 25.7881 21.2732C25.8409 21.2626 25.907 21.2686 25.9447 21.2389C26.1333 21.0897 26.329 20.9451 26.4938 20.7719C26.6893 20.5663 26.7867 20.3066 26.7716 20.0163C26.7592 19.7747 26.6484 19.5645 26.5459 19.3526C26.541 19.3426 26.5267 19.3372 26.4976 19.3153L26.4979 19.3148Z" fill="#181818"/>
<path d="M28.034 19.3516C28.034 19.4478 28.0308 19.5191 28.0346 19.5902C28.0545 19.9615 28.0378 20.3309 27.9582 20.6946C27.9453 20.7533 27.9054 20.8468 27.869 20.8514C27.7854 20.8616 27.7843 20.7657 27.766 20.7046C27.6929 20.4595 27.7228 20.2093 27.7468 19.9626C27.7932 19.4864 27.7414 19.0221 27.6047 18.5663C27.5432 18.3609 27.5127 18.1539 27.5278 17.9391C27.534 17.8488 27.5222 17.7575 27.5278 17.6672C27.5302 17.6283 27.548 17.565 27.572 17.558C27.6136 17.5456 27.6821 17.5518 27.7099 17.5799C27.7797 17.6502 27.8509 17.7294 27.8892 17.8188C27.9763 18.022 28.0418 18.2344 28.1198 18.4417C28.1904 18.6298 28.2492 18.8251 28.3433 19.0013C28.5154 19.324 28.5826 19.6704 28.6233 20.0261C28.702 20.7176 28.6303 21.3972 28.4426 22.0642C28.3938 22.2377 28.322 22.4068 28.2433 22.5695C28.1041 22.857 27.846 22.9705 27.5464 22.9897C27.0114 23.024 26.4755 23.0448 25.9399 23.0729C25.8463 23.0778 25.753 23.0951 25.6594 23.0986C25.6295 23.0997 25.5988 23.074 25.5683 23.0608C25.585 23.0316 25.5944 22.9873 25.6193 22.9759C25.7255 22.9273 25.8334 22.8776 25.9456 22.8478C26.2916 22.7562 26.6451 22.6933 26.9693 22.5284C27.3067 22.3568 27.6206 22.1558 27.856 21.8523C28.1227 21.508 28.2422 21.107 28.311 20.6825C28.3841 20.2328 28.2473 19.8242 28.0987 19.4148C28.0955 19.4056 28.0893 19.397 28.0831 19.3891C28.0791 19.384 28.0729 19.3807 28.0343 19.3513L28.034 19.3516Z" fill="#181818"/>
<path d="M16.1498 19.9386C16.1808 19.53 16.2035 19.1489 16.3731 18.7982C16.5149 18.5052 16.6751 18.4325 16.9524 18.5674C17.0511 18.6155 17.1428 18.6801 17.2326 18.7441C17.3682 18.8411 17.502 18.9417 17.6312 19.0476C17.6651 19.0757 17.7034 19.1319 17.698 19.1695C17.6665 19.3913 17.626 19.6121 17.5818 19.8321C17.5583 19.9485 17.5144 19.9637 17.4108 19.9064C17.2587 19.8218 17.1101 19.7297 16.9543 19.6524C16.6341 19.4932 16.5575 19.5332 16.4801 19.868C16.451 19.9939 16.4025 20.1164 16.3518 20.2355C16.3391 20.265 16.2798 20.2961 16.2485 20.2901C16.2177 20.2844 16.1792 20.2358 16.173 20.2007C16.1563 20.1053 16.1549 20.0072 16.1495 19.9388L16.1498 19.9386Z" fill="#181818"/>
<path d="M25.6125 23.4321C25.5725 23.6964 25.4857 23.9107 25.3436 24.0974C25.3101 24.1412 25.2225 24.1758 25.1688 24.166C24.9749 24.1309 24.7813 24.0852 24.5944 24.0234C24.4453 23.9742 24.4035 23.8907 24.438 23.7404C24.4844 23.5377 24.5407 23.337 24.6049 23.1392C24.616 23.1054 24.6909 23.0659 24.7298 23.0719C25.0132 23.1143 25.2894 23.1873 25.5407 23.3294C25.579 23.351 25.5971 23.4088 25.6127 23.4321H25.6125Z" fill="#181818"/>
</svg>
