<svg width="17" height="17" viewBox="0 0 17 17" fill="none" xmlns="http://www.w3.org/2000/svg">
<path d="M15.2761 12.2332L13.6732 10.8161C13.0642 10.278 12.1406 10.309 11.5688 10.887L10.8234 11.6404C10.4685 11.9992 9.92963 12.0831 9.48515 11.8451C7.76697 10.9286 5.63177 8.78096 5.09052 7.42424C4.87595 6.88612 4.94613 6.36593 5.27444 6.03163L6.0198 5.27826C6.59171 4.70019 6.62318 3.76499 6.08998 3.15113L4.688 1.53106C4.40889 1.20737 4.00476 1.01331 3.57884 1.00108C3.15131 0.984775 2.7383 1.15355 2.43904 1.45604C2.43097 1.4642 2.42291 1.47235 2.41645 1.48132C2.14622 1.80501 1.25164 2.88778 1.09918 3.25142C0.285262 5.1903 1.18146 8.24206 3.38518 11.024C6.30537 14.7126 9.66747 16 12.2318 16C12.6779 16 13.099 15.96 13.4894 15.8891C13.8774 15.8182 14.7099 15.1039 15.352 14.5071C15.6512 14.2022 15.8166 13.7831 15.8021 13.3551C15.7868 12.9237 15.5939 12.5145 15.2761 12.2332ZM14.7784 13.903C14.2355 14.4085 13.5272 14.9923 13.3264 15.0673C10.9225 15.5059 7.22231 14.5348 4.02727 10.5005C2.04369 7.99332 1.17173 5.20892 1.85732 3.57668C1.93154 3.40383 2.52444 2.64557 3.03262 2.03407C3.17298 1.89872 3.35448 1.8229 3.5513 1.83349C3.75135 1.84002 3.93366 1.92726 4.06515 2.07973L5.46713 3.6998C5.71477 3.98598 5.70025 4.41811 5.43405 4.68718L4.68869 5.44055C4.12483 6.01048 3.98447 6.88941 4.32087 7.73404C4.9428 9.29132 7.17249 11.5579 9.09711 12.5827C9.86343 12.992 10.7927 12.8502 11.4042 12.2297L12.1495 11.4763C12.4141 11.2089 12.8433 11.1942 13.1264 11.4429L14.7292 12.86C14.8801 12.9937 14.9664 13.1771 14.9728 13.3793C14.9793 13.5832 14.909 13.7733 14.7784 13.903Z" fill="#F2AA20" stroke="#F2AA20" stroke-width="0.8"/>
</svg>
