 <svg width="28" height="27" viewBox="0 0 28 27" fill="none" xmlns="http://www.w3.org/2000/svg">
<path d="M14.1974 0C6.77932 0 0.744141 6.05613 0.744141 13.5C0.744141 20.9433 6.77932 27 14.1974 27C21.615 27 27.6507 20.9433 27.6507 13.5C27.6507 6.05613 21.6161 0 14.1974 0ZM20.199 10.4102C20.205 10.544 20.2082 10.6788 20.2082 10.8137C20.2082 14.9198 17.0944 19.6529 11.3974 19.6529C9.64869 19.6529 8.02082 19.1401 6.65088 18.2581C6.89312 18.2869 7.13968 18.3016 7.3895 18.3016C8.84072 18.3016 10.1754 17.8046 11.2354 16.9715C9.88063 16.9465 8.73667 16.0482 8.34271 14.8132C8.53129 14.8491 8.72583 14.8692 8.92471 14.8692C9.20704 14.8692 9.48124 14.8323 9.74082 14.761C8.32428 14.4761 7.25727 13.2205 7.25727 11.7142C7.25727 11.7012 7.25727 11.6876 7.25782 11.6751C7.67508 11.9073 8.1525 12.0476 8.65972 12.0633C7.82952 11.507 7.28274 10.5554 7.28274 9.47762C7.28274 8.90774 7.43502 8.37374 7.70163 7.91479C9.22818 9.79519 11.5107 11.0318 14.0836 11.1623C14.0305 10.9344 14.004 10.6979 14.004 10.4537C14.004 8.73808 15.3902 7.34653 17.0999 7.34653C17.9907 7.34653 18.7944 7.72392 19.3601 8.32752C20.0662 8.18831 20.7274 7.93056 21.3272 7.57329C21.0942 8.29924 20.6049 8.90774 19.9638 9.29274C20.5908 9.2177 21.1891 9.0513 21.7423 8.80387C21.3294 9.42597 20.8043 9.97356 20.199 10.4102Z" fill="#F2AA20"/>
</svg>
