<svg width="19" height="19" viewBox="0 0 19 19" fill="none" xmlns="http://www.w3.org/2000/svg">
<path d="M14.5403 10.6491L12.8751 9.4311C12.622 9.24545 12.3125 9.17231 12.0031 9.22013C11.6937 9.26795 11.4237 9.43391 11.238 9.68706L10.7233 10.3931C10.7177 10.4015 10.712 10.41 10.7064 10.4184C10.6277 10.4297 10.2114 10.4381 9.21562 9.64487L9.10873 9.56892C8.06798 8.87697 7.94984 8.48036 7.93578 8.39879C7.9414 8.39035 7.94984 8.38191 7.95547 8.37347L8.47022 7.66745C8.84995 7.14708 8.73744 6.41293 8.21425 6.03038L6.51811 4.79273C5.99774 4.41019 5.26359 4.52552 4.88104 5.0487L4.36067 5.76316C3.85717 6.45512 3.72497 7.36366 4.00906 8.19345C4.42255 9.39453 5.46048 10.6631 7.10318 11.9683C7.13131 12.002 7.16506 12.0302 7.20163 12.0583C7.24101 12.0864 7.2832 12.1145 7.32258 12.1427C7.36196 12.1736 7.40134 12.2017 7.44072 12.2327C7.47729 12.2608 7.51667 12.2833 7.55605 12.3002C9.3 13.4647 10.8246 14.0695 12.096 14.0948C12.1128 14.0948 12.1325 14.0948 12.1494 14.0948C12.9792 14.0948 13.7724 13.6869 14.2731 12.9978L14.7935 12.2833C14.9791 12.0302 15.0522 11.7207 15.0044 11.4113C14.9594 11.1047 14.7935 10.8319 14.5403 10.6491ZM13.8877 11.6223L13.3674 12.3368C13.0692 12.7446 12.591 12.9781 12.1213 12.9696C11.3618 12.9528 10.0342 12.6377 7.99203 11.2341C6.03149 9.71519 5.32547 8.54787 5.07794 7.83059C4.91479 7.35522 4.98793 6.81797 5.27202 6.4298L5.7924 5.71534C5.80646 5.69565 5.83459 5.69003 5.85709 5.70409L7.55323 6.94174C7.57292 6.9558 7.57855 6.98674 7.56448 7.00643L7.07224 7.6787C6.92316 7.84184 6.79095 8.1175 6.81346 8.46911C6.85846 9.11887 7.40415 9.78551 8.4674 10.4915L8.5321 10.5394C9.54753 11.3494 10.3492 11.6673 10.9821 11.5126C11.3224 11.4282 11.5446 11.2172 11.6543 11.026L12.1466 10.3537C12.1607 10.3368 12.1944 10.3312 12.2113 10.3425L13.8793 11.5604C13.8962 11.5688 13.899 11.6026 13.8877 11.6223Z" fill="#F2AA20"/>
<path d="M9.52509 0.00830078C4.42542 0.00830078 0.273682 4.15723 0.273682 9.25971C0.273682 11.4087 1.01908 13.479 2.37768 15.1329L0.816558 18.1736C0.712484 18.3733 0.740612 18.6152 0.884066 18.7896C0.993767 18.919 1.15129 18.9921 1.31724 18.9921C1.37069 18.9921 1.42413 18.9837 1.47757 18.9696L5.73902 17.7038C6.93166 18.2411 8.20306 18.5111 9.52227 18.5111C14.6219 18.5111 18.7737 14.3622 18.7737 9.25971C18.7737 4.15723 14.6248 0.00830078 9.52509 0.00830078ZM9.52509 17.3832C8.30151 17.3832 7.12293 17.1188 6.02874 16.5928C5.90216 16.5337 5.75871 16.5224 5.6265 16.5618L2.42269 17.5154L3.55344 15.3101C3.66033 15.102 3.62658 14.8516 3.47187 14.6772C2.13578 13.1864 1.39881 11.2596 1.39881 9.25971C1.39881 4.77887 5.04425 1.13343 9.52509 1.13343C14.0059 1.13343 17.6485 4.77887 17.6485 9.25971C17.6485 13.7406 14.0059 17.3832 9.52509 17.3832Z" fill="#F2AA20"/>
</svg>
