<svg width="28" height="27" viewBox="0 0 28 27" fill="none" xmlns="http://www.w3.org/2000/svg">
<path d="M14.0841 0H14.0227C6.58599 0 0.557373 6.03039 0.557373 13.4693V13.5307C0.557373 20.9696 6.58599 27 14.0227 27H14.0841C21.5208 27 27.5494 20.9696 27.5494 13.5307V13.4693C27.5494 6.03039 21.5208 0 14.0841 0Z" fill="#F2AA20"/>
<path d="M16.6839 17.4488C13.2294 17.4488 10.4189 14.6365 10.418 11.181C10.4189 10.3051 11.1319 9.59277 12.0057 9.59277C12.0956 9.59277 12.1845 9.60034 12.2696 9.61548C12.4568 9.64669 12.6346 9.71007 12.7982 9.80561C12.8218 9.8198 12.8379 9.8425 12.8417 9.86899L13.2067 12.1705C13.2115 12.1979 13.2029 12.2244 13.185 12.2442C12.9836 12.4675 12.7263 12.6283 12.4398 12.7087L12.3017 12.7475L12.3537 12.8809C12.8247 14.0803 13.7836 15.0386 14.9836 15.5115L15.117 15.5645L15.1557 15.4264C15.2361 15.1398 15.3969 14.8825 15.6201 14.681C15.6361 14.6659 15.6579 14.6583 15.6796 14.6583C15.6844 14.6583 15.6891 14.6583 15.6948 14.6592L17.9956 15.0244C18.023 15.0291 18.0457 15.0442 18.0599 15.0679C18.1544 15.2315 18.2178 15.4103 18.25 15.5976C18.2651 15.6809 18.2717 15.7688 18.2717 15.8606C18.2717 16.7356 17.5596 17.4479 16.6839 17.4488Z" fill="#181818"/>
<path d="M22.8099 12.7414C22.6236 10.6357 21.659 8.68236 20.0939 7.2417C18.5194 5.79251 16.4768 4.99414 14.3405 4.99414C9.65191 4.99414 5.83712 8.81007 5.83712 13.5C5.83712 15.0741 6.27117 16.6075 7.09295 17.9431L5.26025 22.0012L11.1281 21.3759C12.1485 21.7941 13.2284 22.0059 14.3396 22.0059C14.6318 22.0059 14.9316 21.9908 15.2323 21.9596C15.4971 21.9312 15.7647 21.8896 16.0276 21.8366C19.954 21.043 22.8203 17.5572 22.843 13.5454V13.5C22.843 13.2446 22.8316 12.9892 22.8089 12.7414H22.8099ZM11.3541 19.5947L8.10765 19.941L9.07696 17.7927L8.88309 17.5326C8.86891 17.5137 8.85473 17.4948 8.83865 17.473C7.99701 16.3104 7.55254 14.9369 7.55254 13.501C7.55254 9.75695 10.5976 6.71102 14.3405 6.71102C17.847 6.71102 20.8192 9.44763 21.1058 12.941C21.1209 13.1283 21.1294 13.3165 21.1294 13.5019C21.1294 13.5549 21.1285 13.6069 21.1275 13.6627C21.0557 16.7948 18.8683 19.4547 15.8082 20.132C15.5746 20.1841 15.3353 20.2238 15.097 20.2493C14.8493 20.2777 14.5949 20.2919 14.3424 20.2919C13.4431 20.2919 12.5693 20.1178 11.7437 19.7735C11.652 19.7366 11.5622 19.6969 11.478 19.6562L11.3551 19.5966L11.3541 19.5947Z" fill="#181818"/>
</svg>
